<svg width="133" height="37" viewBox="0 0 133 37" fill="none" xmlns="http://www.w3.org/2000/svg">
<path d="M23.175 36.925L24.795 34H5.085V33.55C5.265 31.39 5.355 28.99 5.355 26.35V3.13C4.965 3.13 4.32 3.22 3.42 3.4C2.52 3.58 1.725 3.76 1.035 3.94L0.855 3.67L1.89 2.5H12.465V2.95C12.315 5.47 12.24 7.87 12.24 10.15V33.325H13.365C15.075 33.325 16.935 32.845 18.945 31.885C20.955 30.925 22.74 29.785 24.3 28.465C25.89 27.115 26.895 25.93 27.315 24.91L27.405 24.73L27.945 24.955L24.525 36.97H23.175V36.925ZM43.8975 34.675C40.7775 34.675 37.9725 33.985 35.4825 32.605C32.9925 31.195 31.0425 29.245 29.6325 26.755C28.2525 24.235 27.5625 21.4 27.5625 18.25C27.5625 15.1 28.2525 12.28 29.6325 9.79C31.0425 7.27 32.9925 5.32 35.4825 3.94C37.9725 2.53 40.7775 1.825 43.8975 1.825C47.0475 1.825 49.8525 2.53 52.3125 3.94C54.8025 5.32 56.7375 7.27 58.1175 9.79C59.5275 12.28 60.2325 15.1 60.2325 18.25C60.2325 21.4 59.5275 24.235 58.1175 26.755C56.7375 29.245 54.8025 31.195 52.3125 32.605C49.8525 33.985 47.0475 34.675 43.8975 34.675ZM43.8975 33.82C45.6675 33.82 47.2425 33.175 48.6225 31.885C50.0025 30.565 51.0825 28.72 51.8625 26.35C52.6425 23.98 53.0325 21.28 53.0325 18.25C53.0325 15.22 52.6425 12.52 51.8625 10.15C51.0825 7.78 50.0025 5.95 48.6225 4.66C47.2425 3.34 45.6675 2.68 43.8975 2.68C42.1275 2.68 40.5525 3.34 39.1725 4.66C37.7925 5.95 36.7125 7.78 35.9325 10.15C35.1525 12.52 34.7625 15.22 34.7625 18.25C34.7625 21.28 35.1525 23.98 35.9325 26.35C36.7125 28.72 37.7925 30.565 39.1725 31.885C40.5525 33.175 42.1275 33.82 43.8975 33.82ZM80.3102 34.675C77.3702 34.675 74.7152 33.97 72.3452 32.56C69.9752 31.15 68.1152 29.2 66.7652 26.71C65.4152 24.22 64.7402 21.4 64.7402 18.25C64.7402 15.07 65.4152 12.235 66.7652 9.745C68.1152 7.255 69.9752 5.32 72.3452 3.94C74.7452 2.53 77.4602 1.825 80.4902 1.825C82.2302 1.825 83.6702 1.99 84.8102 2.32C85.9502 2.65 87.1352 3.07 88.3652 3.58C88.6952 3.73 89.0252 3.88 89.3552 4.03C89.7152 4.15 90.0152 4.225 90.2552 4.255L88.4102 0.564999L88.4552 0.339999H89.9402L93.4502 13.3L92.8652 13.525C91.9052 11.845 90.5852 10.165 88.9052 8.485C87.2252 6.805 85.5302 5.425 83.8202 4.345C82.1402 3.235 80.7452 2.68 79.6352 2.68C78.2552 2.68 76.9802 3.34 75.8102 4.66C74.6702 5.95 73.7552 7.78 73.0652 10.15C72.3752 12.52 72.0302 15.22 72.0302 18.25C72.0302 21.31 72.3902 24.025 73.1102 26.395C73.8302 28.735 74.8202 30.565 76.0802 31.885C77.3402 33.175 78.7502 33.82 80.3102 33.82C81.9002 33.82 83.2952 33.385 84.4952 32.515C85.6952 31.645 86.6402 30.34 87.3302 28.6C88.0202 26.83 88.3652 24.685 88.3652 22.165V18.43C87.5252 18.43 86.5802 18.535 85.5302 18.745C84.5102 18.955 83.6552 19.21 82.9652 19.51L82.7852 19.24L83.7752 17.8H86.4302C87.3902 17.8 88.4252 17.8 89.5352 17.8C90.6452 17.77 91.7252 17.725 92.7752 17.665C93.1952 17.635 93.5852 17.62 93.9452 17.62C94.3052 17.62 94.6202 17.605 94.8902 17.575L95.0702 17.8C94.8002 19.3 94.6652 21.31 94.6652 23.83V33.37C95.2052 33.37 96.1652 33.175 97.5452 32.785C97.7252 32.755 97.8902 32.725 98.0402 32.695C98.2202 32.635 98.3852 32.59 98.5352 32.56L98.7152 32.83L97.7702 34H88.3652V29.455C87.9752 30.325 87.4202 31.15 86.7002 31.93C85.9802 32.71 85.0802 33.37 84.0002 33.91C82.9202 34.42 81.6902 34.675 80.3102 34.675ZM116.627 34.675C113.507 34.675 110.702 33.985 108.212 32.605C105.722 31.195 103.772 29.245 102.362 26.755C100.982 24.235 100.292 21.4 100.292 18.25C100.292 15.1 100.982 12.28 102.362 9.79C103.772 7.27 105.722 5.32 108.212 3.94C110.702 2.53 113.507 1.825 116.627 1.825C119.777 1.825 122.582 2.53 125.042 3.94C127.532 5.32 129.467 7.27 130.847 9.79C132.257 12.28 132.962 15.1 132.962 18.25C132.962 21.4 132.257 24.235 130.847 26.755C129.467 29.245 127.532 31.195 125.042 32.605C122.582 33.985 119.777 34.675 116.627 34.675ZM116.627 33.82C118.397 33.82 119.972 33.175 121.352 31.885C122.732 30.565 123.812 28.72 124.592 26.35C125.372 23.98 125.762 21.28 125.762 18.25C125.762 15.22 125.372 12.52 124.592 10.15C123.812 7.78 122.732 5.95 121.352 4.66C119.972 3.34 118.397 2.68 116.627 2.68C114.857 2.68 113.282 3.34 111.902 4.66C110.522 5.95 109.442 7.78 108.662 10.15C107.882 12.52 107.492 15.22 107.492 18.25C107.492 21.28 107.882 23.98 108.662 26.35C109.442 28.72 110.522 30.565 111.902 31.885C113.282 33.175 114.857 33.82 116.627 33.82Z" fill="#820000"/>
</svg>
